<svg xmlns="http://www.w3.org/2000/svg" xmlns:xlink="http://www.w3.org/1999/xlink" width="200" zoomAndPan="magnify" viewBox="0 0 150 149.999998" height="200" preserveAspectRatio="xMidYMid meet" version="1.0"><defs><clipPath id="ae4adb6d05"><path d="M 10.269531 10.269531 L 139.726562 10.269531 L 139.726562 139.726562 L 10.269531 139.726562 Z M 10.269531 10.269531 " clip-rule="nonzero"/></clipPath></defs><g clip-path="url(#ae4adb6d05)"><path fill="#ffffff" d="M 75.027344 139.726562 C 74.175781 139.726562 73.328125 139.710938 72.476562 139.675781 C 38.890625 138.40625 11.597656 111.101562 10.316406 77.515625 C 9.640625 59.730469 16.042969 42.894531 28.359375 30.109375 C 40.675781 17.3125 57.242188 10.269531 74.988281 10.269531 C 110.683594 10.269531 139.710938 39.308594 139.710938 74.988281 C 139.710938 92.75 132.667969 109.304688 119.871094 121.621094 C 107.6875 133.34375 91.851562 139.710938 75.015625 139.710938 Z M 75 12.730469 C 57.917969 12.730469 41.992188 19.503906 30.144531 31.820312 C 18.285156 44.113281 12.125 60.320312 12.78125 77.429688 C 14.011719 109.734375 40.269531 135.992188 72.574219 137.210938 C 89.671875 137.863281 105.878906 131.695312 118.183594 119.859375 C 130.488281 108.011719 137.273438 92.074219 137.273438 75.003906 C 137.273438 40.664062 109.339844 12.742188 75.015625 12.742188 Z M 75 12.730469 " fill-opacity="1" fill-rule="nonzero"/></g><path fill="#ffffff" d="M 33.363281 60.742188 L 33.363281 66.023438 C 35.75 66.023438 35.800781 67.601562 35.800781 67.601562 L 35.800781 84.226562 C 35.800781 84.226562 35.726562 85.804688 33.335938 85.804688 L 33.335938 91.089844 L 45.113281 91.089844 L 45.113281 85.804688 C 42.722656 85.804688 42.671875 84.179688 42.671875 84.179688 L 42.671875 76.074219 L 48.90625 91.050781 L 48.90625 91.074219 L 58.695312 91.074219 L 58.695312 67.589844 C 58.695312 67.589844 58.746094 66.011719 61.136719 66.011719 L 61.136719 60.679688 L 49.386719 60.679688 L 49.386719 66.023438 C 51.773438 66.023438 51.824219 67.539062 51.824219 67.539062 L 51.824219 74.792969 L 45.863281 60.679688 L 33.351562 60.679688 L 33.351562 60.726562 Z M 33.363281 60.742188 " fill-opacity="1" fill-rule="nonzero"/><path fill="#ffffff" d="M 87.785156 67.613281 C 87.785156 67.613281 87.835938 66.035156 90.226562 66.035156 L 90.226562 60.679688 L 77.257812 60.679688 L 77.257812 66.023438 C 79.644531 66.023438 79.683594 67.550781 79.683594 67.550781 L 79.683594 84.203125 C 79.683594 84.203125 79.632812 85.78125 77.242188 85.78125 L 77.242188 91.0625 L 90.238281 91.0625 L 90.238281 85.78125 C 87.847656 85.78125 87.800781 84.152344 87.800781 84.152344 L 87.800781 67.601562 Z M 87.785156 67.613281 " fill-opacity="1" fill-rule="nonzero"/><path fill="#ffffff" d="M 73.253906 67.613281 C 73.253906 67.613281 73.304688 66.035156 75.683594 66.035156 L 75.683594 60.679688 L 62.710938 60.679688 L 62.710938 66.023438 C 65.101562 66.023438 65.140625 67.550781 65.140625 67.550781 L 65.140625 84.203125 C 65.140625 84.203125 65.089844 85.78125 62.699219 85.78125 L 62.699219 91.0625 L 75.695312 91.0625 L 75.695312 85.78125 C 73.304688 85.78125 73.253906 84.152344 73.253906 84.152344 L 73.253906 67.601562 Z M 73.253906 67.613281 " fill-opacity="1" fill-rule="nonzero"/><path fill="#ffffff" d="M 97.699219 91.136719 L 110.679688 91.136719 L 110.679688 85.777344 C 108.292969 85.777344 108.230469 84.203125 108.230469 84.203125 L 108.230469 68.226562 C 108.230469 66.527344 109.203125 66.527344 109.203125 66.527344 C 110.59375 66.578125 110.507812 68.414062 110.507812 68.414062 L 110.507812 73.082031 L 116.65625 73.082031 L 116.65625 60.691406 L 91.628906 60.691406 L 91.628906 73.082031 L 97.773438 73.082031 L 97.773438 68.414062 C 97.773438 68.414062 97.6875 66.578125 99.078125 66.527344 C 99.078125 66.527344 100.113281 66.527344 100.113281 67.96875 L 100.113281 84.25 C 100.113281 84.25 100.066406 85.828125 97.675781 85.828125 L 97.675781 91.125 L 97.699219 91.125 Z M 97.699219 91.136719 " fill-opacity="1" fill-rule="nonzero"/></svg>