<svg xmlns="http://www.w3.org/2000/svg" xmlns:xlink="http://www.w3.org/1999/xlink" width="256" zoomAndPan="magnify" viewBox="0 0 192 199.92" height="256" preserveAspectRatio="xMidYMid meet" version="1.0"><defs><clipPath id="825d00abba"><path d="M 17.277344 19.191406 L 174.714844 19.191406 L 174.714844 172.878906 L 17.277344 172.878906 Z M 17.277344 19.191406 " clip-rule="nonzero"/></clipPath></defs><g clip-path="url(#825d00abba)"><path fill="#00005b" d="M 45.15625 19.210938 L 146.835938 19.210938 C 162.25 19.210938 174.714844 31.6875 174.714844 47.117188 L 174.714844 144.957031 C 174.714844 160.386719 162.25 172.863281 146.835938 172.863281 L 45.15625 172.863281 C 29.742188 172.863281 17.277344 160.386719 17.277344 144.957031 L 17.277344 47.117188 C 17.277344 31.6875 29.742188 19.210938 45.15625 19.210938 Z M 45.15625 19.210938 " fill-opacity="1" fill-rule="nonzero"/></g><path fill="#9999ff" d="M 80.515625 111.140625 L 56.113281 111.140625 L 51.128906 126.636719 C 50.996094 127.226562 50.472656 127.621094 49.882812 127.554688 L 37.546875 127.554688 C 36.828125 127.554688 36.628906 127.160156 36.828125 126.371094 L 57.949219 65.765625 C 58.148438 65.109375 58.34375 64.515625 58.605469 63.730469 C 58.867188 62.351562 59 60.90625 59 59.460938 C 58.933594 59.132812 59.195312 58.804688 59.523438 58.738281 L 76.515625 58.738281 C 76.972656 58.738281 77.300781 58.933594 77.367188 59.265625 L 101.3125 126.242188 C 101.507812 126.964844 101.3125 127.292969 100.65625 127.292969 L 86.945312 127.292969 C 86.484375 127.355469 86.027344 127.027344 85.894531 126.570312 L 80.515625 110.808594 Z M 59.917969 98.070312 L 76.578125 98.070312 C 76.1875 96.695312 75.660156 95.050781 75.070312 93.34375 C 74.480469 91.570312 73.890625 89.667969 73.300781 87.699219 C 72.644531 85.660156 72.054688 83.691406 71.398438 81.65625 C 70.742188 79.621094 70.152344 77.714844 69.625 75.8125 C 69.101562 73.972656 68.644531 72.265625 68.183594 70.691406 L 68.050781 70.691406 C 67.460938 73.515625 66.742188 76.335938 65.820312 79.160156 C 64.839844 82.3125 63.855469 85.597656 62.804688 88.878906 C 61.953125 92.226562 60.902344 95.316406 59.917969 98.074219 Z M 139.949219 105.230469 L 119.152344 105.230469 C 119.414062 107.265625 120.070312 109.300781 121.1875 111.074219 C 122.367188 112.847656 124.007812 114.226562 125.976562 115.011719 C 128.601562 116.128906 131.484375 116.71875 134.371094 116.65625 C 136.667969 116.589844 138.964844 116.390625 141.195312 115.933594 C 143.226562 115.667969 145.195312 115.144531 147.03125 114.421875 C 147.359375 114.160156 147.558594 114.289062 147.558594 114.945312 L 147.558594 124.992188 C 147.558594 125.257812 147.492188 125.519531 147.425781 125.78125 C 147.296875 125.980469 147.164062 126.109375 146.96875 126.242188 C 144.867188 127.160156 142.703125 127.816406 140.40625 128.210938 C 137.324219 128.800781 134.242188 129.066406 131.089844 129 C 126.105469 129 121.90625 128.210938 118.496094 126.699219 C 115.28125 125.320312 112.460938 123.15625 110.230469 120.460938 C 108.132812 117.902344 106.625 115.011719 105.707031 111.859375 C 104.785156 108.773438 104.328125 105.558594 104.328125 102.273438 C 104.328125 98.726562 104.851562 95.246094 105.96875 91.832031 C 107.015625 88.550781 108.65625 85.53125 110.886719 82.835938 C 113.050781 80.210938 115.742188 78.109375 118.824219 76.597656 C 121.90625 75.089844 125.582031 74.5625 129.777344 74.5625 C 133.257812 74.496094 136.734375 75.15625 139.945312 76.597656 C 142.636719 77.78125 145 79.554688 146.835938 81.851562 C 148.539062 84.085938 149.917969 86.578125 150.769531 89.335938 C 151.625 91.964844 152.015625 94.65625 152.015625 97.347656 C 152.015625 98.925781 151.953125 100.304688 151.886719 101.550781 C 151.753906 102.796875 151.6875 103.71875 151.625 104.308594 C 151.558594 104.769531 151.164062 105.164062 150.707031 105.164062 C 150.3125 105.164062 149.589844 105.226562 148.539062 105.292969 C 147.492188 105.425781 146.246094 105.492188 144.734375 105.492188 C 143.226562 105.492188 141.652344 105.226562 139.945312 105.226562 Z M 119.152344 95.644531 L 132.996094 95.644531 C 134.699219 95.644531 135.945312 95.644531 136.734375 95.578125 C 137.257812 95.511719 137.785156 95.378906 138.242188 95.050781 L 138.242188 94.394531 C 138.242188 93.542969 138.109375 92.753906 137.847656 91.964844 C 136.667969 88.289062 133.191406 85.792969 129.320312 85.925781 C 125.710938 85.726562 122.300781 87.632812 120.597656 90.914062 C 119.808594 92.425781 119.351562 94 119.152344 95.644531 Z M 119.152344 95.644531 " fill-opacity="1" fill-rule="nonzero"/></svg>