<svg xmlns="http://www.w3.org/2000/svg" xmlns:xlink="http://www.w3.org/1999/xlink" width="256" zoomAndPan="magnify" viewBox="0 0 192 199.92" height="256" preserveAspectRatio="xMidYMid meet" version="1.0"><defs><clipPath id="70dc40d487"><path d="M 96 70 L 147.53125 70 L 147.53125 122 L 96 122 Z M 96 70 " clip-rule="nonzero"/></clipPath><clipPath id="bc98488ac5"><path d="M 45 121 L 97 121 L 97 172.878906 L 45 172.878906 Z M 45 121 " clip-rule="nonzero"/></clipPath><clipPath id="276fa0df93"><path d="M 96 19.191406 L 147.53125 19.191406 L 147.53125 71 L 96 71 Z M 96 19.191406 " clip-rule="nonzero"/></clipPath><clipPath id="c79ed92bf4"><path d="M 45 19.191406 L 97 19.191406 L 97 71 L 45 71 Z M 45 19.191406 " clip-rule="nonzero"/></clipPath></defs><g clip-path="url(#70dc40d487)"><path fill="#1abcfe" d="M 96.175781 96.035156 C 96.175781 82.035156 107.554688 70.683594 121.589844 70.683594 C 135.628906 70.683594 147.007812 82.035156 147.007812 96.035156 C 147.007812 110.039062 135.628906 121.390625 121.589844 121.390625 C 107.554688 121.390625 96.175781 110.039062 96.175781 96.035156 Z M 96.175781 96.035156 " fill-opacity="1" fill-rule="nonzero"/></g><g clip-path="url(#bc98488ac5)"><path fill="#0acf83" d="M 45.34375 146.746094 C 45.34375 132.742188 56.722656 121.390625 70.757812 121.390625 L 96.175781 121.390625 L 96.175781 146.746094 C 96.175781 160.746094 84.796875 172.097656 70.757812 172.097656 C 56.722656 172.097656 45.34375 160.746094 45.34375 146.746094 Z M 45.34375 146.746094 " fill-opacity="1" fill-rule="nonzero"/></g><g clip-path="url(#276fa0df93)"><path fill="#ff7262" d="M 96.175781 19.976562 L 96.175781 70.683594 L 121.589844 70.683594 C 135.628906 70.683594 147.007812 59.332031 147.007812 45.328125 C 147.007812 31.324219 135.628906 19.976562 121.589844 19.976562 Z M 96.175781 19.976562 " fill-opacity="1" fill-rule="nonzero"/></g><g clip-path="url(#c79ed92bf4)"><path fill="#f24e1e" d="M 45.34375 45.328125 C 45.34375 59.332031 56.722656 70.683594 70.757812 70.683594 L 96.175781 70.683594 L 96.175781 19.976562 L 70.757812 19.976562 C 56.722656 19.976562 45.34375 31.324219 45.34375 45.328125 Z M 45.34375 45.328125 " fill-opacity="1" fill-rule="nonzero"/></g><path fill="#a259ff" d="M 45.34375 96.035156 C 45.34375 110.039062 56.722656 121.390625 70.757812 121.390625 L 96.175781 121.390625 L 96.175781 70.683594 L 70.757812 70.683594 C 56.722656 70.683594 45.34375 82.035156 45.34375 96.035156 Z M 45.34375 96.035156 " fill-opacity="1" fill-rule="nonzero"/></svg>