<svg xmlns="http://www.w3.org/2000/svg" xmlns:xlink="http://www.w3.org/1999/xlink" width="256" zoomAndPan="magnify" viewBox="0 0 192 199.92" height="256" preserveAspectRatio="xMidYMid meet" version="1.0"><defs><clipPath id="5ccc22a478"><path d="M 19.230469 21.144531 L 172.917969 21.144531 L 172.917969 171.085938 L 19.230469 171.085938 Z M 19.230469 21.144531 " clip-rule="nonzero"/></clipPath></defs><g clip-path="url(#5ccc22a478)"><path fill="#330000" d="M 46.472656 21.144531 L 145.679688 21.144531 C 160.71875 21.144531 172.882812 33.320312 172.882812 48.378906 L 172.882812 143.855469 C 172.882812 158.910156 160.71875 171.085938 145.679688 171.085938 L 46.472656 171.085938 C 31.429688 171.085938 19.269531 158.910156 19.269531 143.855469 L 19.269531 48.378906 C 19.269531 33.320312 31.429688 21.144531 46.472656 21.144531 Z M 46.472656 21.144531 " fill-opacity="1" fill-rule="nonzero"/></g><path fill="#ff9a00" d="M 93.707031 111.109375 L 69.898438 111.109375 L 65.03125 126.167969 C 64.90625 126.746094 64.390625 127.128906 63.816406 127.066406 L 51.785156 127.066406 C 51.078125 127.066406 50.886719 126.679688 51.078125 125.914062 L 71.6875 66.511719 C 71.882812 65.871094 72.074219 65.167969 72.328125 64.398438 C 72.585938 63.054688 72.714844 61.644531 72.714844 60.234375 C 72.648438 59.914062 72.90625 59.59375 73.226562 59.527344 L 89.800781 59.527344 C 90.316406 59.527344 90.570312 59.722656 90.632812 60.042969 L 113.996094 126.039062 C 114.1875 126.746094 113.996094 127.066406 113.355469 127.066406 L 99.980469 127.066406 C 99.53125 127.128906 99.082031 126.808594 98.957031 126.359375 Z M 73.609375 98.101562 L 89.867188 98.101562 C 89.484375 96.757812 88.96875 95.15625 88.394531 93.488281 C 87.816406 91.757812 87.242188 89.902344 86.667969 87.980469 C 86.027344 85.992188 85.449219 84.070312 84.808594 82.082031 C 84.171875 80.097656 83.59375 78.238281 83.082031 76.378906 C 82.570312 74.585938 82.121094 72.921875 81.671875 71.382812 L 81.546875 71.382812 C 80.96875 74.136719 80.265625 76.894531 79.371094 79.648438 C 78.410156 82.722656 77.449219 85.929688 76.425781 89.132812 C 75.53125 92.398438 74.570312 95.410156 73.609375 98.101562 Z M 127.949219 70.484375 C 125.835938 70.550781 123.789062 69.714844 122.253906 68.242188 C 120.78125 66.640625 120.011719 64.527344 120.078125 62.347656 C 120.011719 60.167969 120.84375 58.117188 122.382812 56.644531 C 123.917969 55.171875 125.964844 54.402344 128.078125 54.402344 C 130.574219 54.402344 132.492188 55.171875 133.902344 56.644531 C 135.308594 58.183594 136.078125 60.234375 136.015625 62.347656 C 136.078125 64.527344 135.308594 66.640625 133.773438 68.242188 C 132.300781 69.78125 130.125 70.613281 127.949219 70.484375 Z M 120.78125 126.105469 L 120.78125 76.765625 C 120.78125 76.125 121.035156 75.867188 121.613281 75.867188 L 134.285156 75.867188 C 134.863281 75.867188 135.117188 76.1875 135.117188 76.765625 L 135.117188 126.105469 C 135.117188 126.808594 134.863281 127.128906 134.285156 127.128906 L 121.742188 127.128906 C 121.101562 127.128906 120.78125 126.746094 120.78125 126.105469 Z M 120.78125 126.105469 " fill-opacity="1" fill-rule="nonzero"/></svg>