<svg xmlns="http://www.w3.org/2000/svg" xmlns:xlink="http://www.w3.org/1999/xlink" width="256" zoomAndPan="magnify" viewBox="0 0 192 199.92" height="256" preserveAspectRatio="xMidYMid meet" version="1.0"><defs><clipPath id="1f46df1a1a"><path d="M 29 38 L 165 38 L 165 163.542969 L 29 163.542969 Z M 29 38 " clip-rule="nonzero"/></clipPath><clipPath id="a90458a0a5"><path d="M 33.445312 81.507812 C 33.675781 80.8125 43.417969 47.375 82.003906 46.910156 C 82.003906 46.910156 98.183594 28.597656 120.226562 46.910156 C 120.226562 46.910156 126.207031 51.828125 129.488281 62.039062 C 129.488281 62.039062 158.433594 66.433594 163.117188 90.371094 C 163.117188 90.371094 172.882812 129.785156 139.816406 157.480469 C 139.816406 157.480469 135.160156 161.207031 132.058594 162.941406 C 132.058594 162.941406 125.183594 162.949219 123.761719 162.941406 C 120.734375 162.917969 118.824219 162.941406 116.070312 162.941406 C 116.070312 162.941406 111.84375 161.425781 111.667969 156.59375 C 111.667969 156.59375 111.3125 139.78125 111.410156 136.875 C 111.410156 136.875 111.492188 134.15625 107.535156 134.328125 C 107.535156 134.328125 103.757812 133.890625 103.222656 137.140625 C 103.222656 137.140625 103.132812 154.484375 103.050781 157.558594 C 103.050781 157.558594 102.785156 162.675781 97.066406 162.921875 C 97.066406 162.921875 76.574219 163.542969 73.851562 162.574219 C 73.851562 162.574219 69.105469 161.691406 68.75 157.203125 C 68.75 157.203125 64.875 134.320312 64.179688 127.203125 C 64.179688 127.203125 51.160156 119.980469 48.523438 118.046875 C 48.523438 118.046875 49.402344 141.363281 57.492188 151.222656 C 57.492188 151.222656 58.902344 152.457031 56.082031 154.210938 C 56.082031 154.210938 55.027344 155.09375 53.96875 154.574219 C 53.96875 154.574219 19.265625 135.179688 32.046875 85.675781 " clip-rule="nonzero"/></clipPath><linearGradient x1="400.117" gradientTransform="matrix(0.169129, 0, 0, 0.169241, 29.173277, 38.739169)" y1="-59.929978" x2="400.117" gradientUnits="userSpaceOnUse" y2="737.429974" id="45b4905013"><stop stop-opacity="1" stop-color="rgb(23.139954%, 71.369934%, 100%)" offset="0"/><stop stop-opacity="1" stop-color="rgb(23.129272%, 71.334839%, 100%)" offset="0.125"/><stop stop-opacity="1" stop-color="rgb(23.068237%, 71.125793%, 100%)" offset="0.15625"/><stop stop-opacity="1" stop-color="rgb(22.969055%, 70.779419%, 100%)" offset="0.1875"/><stop stop-opacity="1" stop-color="rgb(22.868347%, 70.431519%, 100%)" offset="0.21875"/><stop stop-opacity="1" stop-color="rgb(22.769165%, 70.085144%, 100%)" offset="0.25"/><stop stop-opacity="1" stop-color="rgb(22.668457%, 69.737244%, 100%)" offset="0.28125"/><stop stop-opacity="1" stop-color="rgb(22.569275%, 69.390869%, 100%)" offset="0.3125"/><stop stop-opacity="1" stop-color="rgb(22.468567%, 69.042969%, 100%)" offset="0.34375"/><stop stop-opacity="1" stop-color="rgb(22.393799%, 68.783569%, 100%)" offset="0.359375"/><stop stop-opacity="1" stop-color="rgb(22.332764%, 68.559265%, 100%)" offset="0.375"/><stop stop-opacity="1" stop-color="rgb(22.254944%, 68.254089%, 100%)" offset="0.390625"/><stop stop-opacity="1" stop-color="rgb(22.171021%, 67.913818%, 100%)" offset="0.40625"/><stop stop-opacity="1" stop-color="rgb(22.087097%, 67.575073%, 100%)" offset="0.421875"/><stop stop-opacity="1" stop-color="rgb(22.003174%, 67.236328%, 100%)" offset="0.4375"/><stop stop-opacity="1" stop-color="rgb(21.91925%, 66.897583%, 100%)" offset="0.453125"/><stop stop-opacity="1" stop-color="rgb(21.833801%, 66.558838%, 100%)" offset="0.46875"/><stop stop-opacity="1" stop-color="rgb(21.749878%, 66.220093%, 100%)" offset="0.484375"/><stop stop-opacity="1" stop-color="rgb(21.665955%, 65.881348%, 100%)" offset="0.5"/><stop stop-opacity="1" stop-color="rgb(21.582031%, 65.542603%, 100%)" offset="0.515625"/><stop stop-opacity="1" stop-color="rgb(21.498108%, 65.203857%, 100%)" offset="0.53125"/><stop stop-opacity="1" stop-color="rgb(21.414185%, 64.865112%, 100%)" offset="0.546875"/><stop stop-opacity="1" stop-color="rgb(21.328735%, 64.526367%, 100%)" offset="0.5625"/><stop stop-opacity="1" stop-color="rgb(21.244812%, 64.187622%, 100%)" offset="0.578125"/><stop stop-opacity="1" stop-color="rgb(21.176147%, 63.908386%, 100%)" offset="0.59375"/><stop stop-opacity="1" stop-color="rgb(21.104431%, 63.626099%, 100%)" offset="0.625"/><stop stop-opacity="1" stop-color="rgb(21.017456%, 63.284302%, 100%)" offset="0.65625"/><stop stop-opacity="1" stop-color="rgb(20.928955%, 62.942505%, 100%)" offset="0.6875"/><stop stop-opacity="1" stop-color="rgb(20.84198%, 62.599182%, 100%)" offset="0.71875"/><stop stop-opacity="1" stop-color="rgb(20.756531%, 62.27417%, 100%)" offset="0.734375"/><stop stop-opacity="1" stop-color="rgb(20.683289%, 62.011719%, 100%)" offset="0.742188"/><stop stop-opacity="1" stop-color="rgb(20.622253%, 61.798096%, 100%)" offset="0.75"/><stop stop-opacity="1" stop-color="rgb(20.561218%, 61.584473%, 100%)" offset="0.757812"/><stop stop-opacity="1" stop-color="rgb(20.500183%, 61.369324%, 100%)" offset="0.765625"/><stop stop-opacity="1" stop-color="rgb(20.439148%, 61.155701%, 100%)" offset="0.773437"/><stop stop-opacity="1" stop-color="rgb(20.378113%, 60.940552%, 100%)" offset="0.78125"/><stop stop-opacity="1" stop-color="rgb(20.317078%, 60.726929%, 100%)" offset="0.789062"/><stop stop-opacity="1" stop-color="rgb(20.256042%, 60.513306%, 100%)" offset="0.796875"/><stop stop-opacity="1" stop-color="rgb(20.195007%, 60.298157%, 100%)" offset="0.804687"/><stop stop-opacity="1" stop-color="rgb(20.133972%, 60.084534%, 100%)" offset="0.8125"/><stop stop-opacity="1" stop-color="rgb(20.046997%, 59.790039%, 100%)" offset="0.828125"/><stop stop-opacity="1" stop-color="rgb(19.9646%, 59.57489%, 100%)" offset="0.84375"/><stop stop-opacity="1" stop-color="rgb(19.885254%, 59.495544%, 100%)" offset="0.875"/><stop stop-opacity="1" stop-color="rgb(19.720459%, 59.33075%, 100%)" offset="1"/></linearGradient></defs><g clip-path="url(#1f46df1a1a)"><g clip-path="url(#a90458a0a5)"><path fill="url(#45b4905013)" d="M 19.265625 28.597656 L 19.265625 163.542969 L 172.882812 163.542969 L 172.882812 28.597656 Z M 19.265625 28.597656 " fill-rule="nonzero"/></g></g><path fill="#006699" d="M 72.289062 113.402344 C 72.289062 113.402344 102.5625 130.671875 120.878906 102.949219 C 120.878906 102.949219 135.714844 83.566406 129.804688 62.890625 C 129.804688 62.890625 140.207031 80.265625 120.082031 107.226562 C 120.085938 107.230469 103.015625 131.261719 72.289062 113.402344 Z M 72.289062 113.402344 " fill-opacity="1" fill-rule="nonzero"/><path fill="#cee6ff" d="M 60.308594 109.328125 C 60.308594 109.328125 62.46875 119.332031 55.828125 122.480469 C 55.828125 122.480469 40.71875 116.25 42.246094 104.75 C 42.246094 104.75 42.71875 101.878906 45.53125 103.636719 C 45.53125 103.636719 52.21875 107.277344 57.496094 108.324219 C 57.492188 108.324219 60.175781 108.574219 60.308594 109.328125 Z M 60.308594 109.328125 " fill-opacity="1" fill-rule="nonzero"/><path fill="#006699" d="M 56.117188 92.421875 C 56.117188 92.421875 58.394531 82.679688 66.992188 83.296875 C 66.992188 83.296875 74.296875 83.492188 74.554688 93.542969 C 74.554688 93.550781 68.800781 78.511719 56.117188 92.421875 Z M 56.117188 92.421875 " fill-opacity="1" fill-rule="nonzero"/></svg>