<svg xmlns="http://www.w3.org/2000/svg" xmlns:xlink="http://www.w3.org/1999/xlink" width="256" zoomAndPan="magnify" viewBox="0 0 192 199.92" height="256" preserveAspectRatio="xMidYMid meet" version="1.0"><defs><clipPath id="6339e0442a"><path d="M 19.941406 19.902344 L 93 19.902344 L 93 93 L 19.941406 93 Z M 19.941406 19.902344 " clip-rule="nonzero"/></clipPath><clipPath id="797753a8d3"><path d="M 99 19.902344 L 172.132812 19.902344 L 172.132812 93 L 99 93 Z M 99 19.902344 " clip-rule="nonzero"/></clipPath><clipPath id="692779be65"><path d="M 19.941406 99 L 93 99 L 93 172.09375 L 19.941406 172.09375 Z M 19.941406 99 " clip-rule="nonzero"/></clipPath><clipPath id="40fc752fda"><path d="M 99 99 L 172.132812 99 L 172.132812 172.09375 L 99 172.09375 Z M 99 99 " clip-rule="nonzero"/></clipPath></defs><g clip-path="url(#6339e0442a)"><path fill="#f1511b" d="M 19.953125 19.902344 L 92.269531 19.902344 L 92.269531 92.21875 L 19.953125 92.21875 Z M 19.953125 19.902344 " fill-opacity="1" fill-rule="nonzero"/></g><g clip-path="url(#797753a8d3)"><path fill="#80cc28" d="M 172.117188 92.21875 L 99.796875 92.21875 L 99.796875 19.902344 L 172.113281 19.902344 L 172.113281 92.21875 Z M 172.117188 92.21875 " fill-opacity="1" fill-rule="nonzero"/></g><g clip-path="url(#692779be65)"><path fill="#00adef" d="M 19.953125 99.777344 L 92.269531 99.777344 L 92.269531 172.09375 L 19.953125 172.09375 Z M 19.953125 99.777344 " fill-opacity="1" fill-rule="nonzero"/></g><g clip-path="url(#40fc752fda)"><path fill="#fbbc09" d="M 172.117188 172.09375 L 99.796875 172.09375 L 99.796875 99.777344 L 172.113281 99.777344 L 172.113281 172.09375 Z M 172.117188 172.09375 " fill-opacity="1" fill-rule="nonzero"/></g></svg>