<svg xmlns="http://www.w3.org/2000/svg" xmlns:xlink="http://www.w3.org/1999/xlink" width="256" zoomAndPan="magnify" viewBox="0 0 192 199.92" height="256" preserveAspectRatio="xMidYMid meet" version="1.0"><defs><clipPath id="a1b4e550f2"><path d="M 19.230469 21.144531 L 172.917969 21.144531 L 172.917969 171.085938 L 19.230469 171.085938 Z M 19.230469 21.144531 " clip-rule="nonzero"/></clipPath></defs><g clip-path="url(#a1b4e550f2)"><path fill="#001e36" d="M 46.472656 21.144531 L 145.679688 21.144531 C 160.71875 21.144531 172.882812 33.320312 172.882812 48.378906 L 172.882812 143.855469 C 172.882812 158.910156 160.71875 171.085938 145.679688 171.085938 L 46.472656 171.085938 C 31.429688 171.085938 19.269531 158.910156 19.269531 143.855469 L 19.269531 48.378906 C 19.269531 33.320312 31.429688 21.144531 46.472656 21.144531 Z M 46.472656 21.144531 " fill-opacity="1" fill-rule="nonzero"/></g><path fill="#31a8ff" d="M 53.832031 126.296875 L 53.832031 60.363281 C 53.832031 59.914062 54.023438 59.65625 54.472656 59.65625 C 55.558594 59.65625 56.582031 59.65625 58.054688 59.59375 C 59.59375 59.527344 61.191406 59.527344 62.921875 59.464844 C 64.648438 59.398438 66.503906 59.398438 68.488281 59.335938 C 70.472656 59.273438 72.394531 59.273438 74.3125 59.273438 C 79.5625 59.273438 83.914062 59.914062 87.5 61.257812 C 90.699219 62.347656 93.644531 64.140625 96.074219 66.511719 C 98.125 68.5625 99.722656 71.0625 100.746094 73.816406 C 101.707031 76.507812 102.21875 79.265625 102.21875 82.148438 C 102.21875 87.660156 100.9375 92.207031 98.378906 95.796875 C 95.820312 99.382812 92.234375 102.074219 88.074219 103.613281 C 83.722656 105.214844 78.921875 105.792969 73.671875 105.792969 C 72.136719 105.792969 71.113281 105.792969 70.472656 105.726562 C 69.832031 105.664062 68.9375 105.664062 67.71875 105.664062 L 67.71875 126.234375 C 67.785156 126.679688 67.464844 127.066406 67.015625 127.128906 L 54.601562 127.128906 C 54.085938 127.128906 53.832031 126.875 53.832031 126.296875 Z M 67.785156 72.023438 L 67.785156 93.554688 C 68.679688 93.617188 69.511719 93.679688 70.28125 93.679688 L 73.671875 93.679688 C 76.167969 93.679688 78.664062 93.296875 81.035156 92.527344 C 83.082031 91.953125 84.875 90.734375 86.28125 89.132812 C 87.625 87.53125 88.265625 85.351562 88.265625 82.53125 C 88.332031 80.546875 87.816406 78.558594 86.792969 76.828125 C 85.707031 75.164062 84.171875 73.882812 82.3125 73.175781 C 79.945312 72.214844 77.386719 71.832031 74.761719 71.894531 C 73.097656 71.894531 71.625 71.894531 70.410156 71.960938 C 69.128906 71.894531 68.234375 71.960938 67.785156 72.023438 Z M 142.160156 89.644531 C 140.238281 88.621094 138.191406 87.914062 136.015625 87.464844 C 133.644531 86.953125 131.277344 86.632812 128.84375 86.632812 C 127.566406 86.570312 126.222656 86.761719 125.003906 87.082031 C 124.171875 87.273438 123.46875 87.722656 123.019531 88.363281 C 122.699219 88.875 122.507812 89.515625 122.507812 90.09375 C 122.507812 90.667969 122.765625 91.246094 123.148438 91.757812 C 123.726562 92.464844 124.492188 93.039062 125.324219 93.488281 C 126.796875 94.257812 128.332031 94.964844 129.871094 95.605469 C 133.324219 96.757812 136.652344 98.359375 139.726562 100.28125 C 141.839844 101.628906 143.566406 103.421875 144.78125 105.601562 C 145.808594 107.648438 146.320312 109.894531 146.253906 112.199219 C 146.320312 115.210938 145.421875 118.222656 143.757812 120.722656 C 141.964844 123.285156 139.46875 125.269531 136.589844 126.425781 C 133.453125 127.769531 129.613281 128.476562 125.003906 128.476562 C 122.0625 128.476562 119.179688 128.21875 116.300781 127.640625 C 114.058594 127.257812 111.820312 126.554688 109.773438 125.59375 C 109.324219 125.335938 109.003906 124.886719 109.066406 124.375 L 109.066406 113.226562 C 109.066406 113.03125 109.132812 112.777344 109.324219 112.648438 C 109.515625 112.519531 109.707031 112.585938 109.898438 112.710938 C 112.394531 114.1875 115.019531 115.210938 117.835938 115.851562 C 120.269531 116.492188 122.828125 116.8125 125.390625 116.8125 C 127.820312 116.8125 129.550781 116.492188 130.703125 115.917969 C 131.726562 115.46875 132.429688 114.378906 132.429688 113.226562 C 132.429688 112.328125 131.917969 111.496094 130.894531 110.660156 C 129.871094 109.828125 127.757812 108.867188 124.621094 107.648438 C 121.355469 106.496094 118.347656 104.960938 115.53125 103.035156 C 113.546875 101.628906 111.882812 99.769531 110.667969 97.589844 C 109.644531 95.539062 109.132812 93.296875 109.195312 91.054688 C 109.195312 88.300781 109.964844 85.671875 111.371094 83.300781 C 112.972656 80.738281 115.339844 78.6875 118.09375 77.40625 C 121.101562 75.867188 124.878906 75.164062 129.421875 75.164062 C 132.046875 75.164062 134.734375 75.355469 137.359375 75.738281 C 139.277344 75.996094 141.132812 76.507812 142.863281 77.214844 C 143.117188 77.277344 143.375 77.535156 143.503906 77.789062 C 143.566406 78.046875 143.628906 78.304688 143.628906 78.558594 L 143.628906 89.003906 C 143.628906 89.261719 143.503906 89.515625 143.3125 89.644531 C 142.734375 89.773438 142.414062 89.773438 142.160156 89.644531 Z M 142.160156 89.644531 " fill-opacity="1" fill-rule="nonzero"/></svg>