<svg xmlns="http://www.w3.org/2000/svg" xmlns:xlink="http://www.w3.org/1999/xlink" width="256" zoomAndPan="magnify" viewBox="0 0 192 199.92" height="256" preserveAspectRatio="xMidYMid meet" version="1.0"><defs><clipPath id="2651f796e3"><path d="M 126 22 L 172.917969 22 L 172.917969 171.992188 L 126 171.992188 Z M 126 22 " clip-rule="nonzero"/></clipPath></defs><path fill="#2489ca" d="M 22.90625 74.214844 C 22.90625 74.214844 19.230469 71.570312 23.640625 68.039062 L 33.914062 58.871094 C 33.914062 58.871094 36.851562 55.78125 39.960938 58.472656 L 134.753906 130.117188 L 134.753906 164.46875 C 134.753906 164.46875 134.707031 169.863281 127.773438 169.269531 Z M 22.90625 74.214844 " fill-opacity="1" fill-rule="nonzero"/><path fill="#1070b3" d="M 47.339844 96.355469 L 22.90625 118.53125 C 22.90625 118.53125 20.394531 120.394531 22.90625 123.726562 L 34.25 134.027344 C 34.25 134.027344 36.945312 136.917969 40.921875 133.628906 L 66.828125 114.023438 Z M 47.339844 96.355469 " fill-opacity="1" fill-rule="nonzero"/><path fill="#0877b9" d="M 90.234375 96.539062 L 135.042969 62.382812 L 134.753906 28.214844 C 134.753906 28.214844 132.839844 20.757812 126.457031 24.636719 L 66.828125 78.8125 Z M 90.234375 96.539062 " fill-opacity="1" fill-rule="nonzero"/><g clip-path="url(#2651f796e3)"><path fill="#3c99d4" d="M 127.773438 169.3125 C 130.375 171.972656 133.527344 171.101562 133.527344 171.101562 L 168.449219 153.925781 C 172.917969 150.882812 172.292969 147.109375 172.292969 147.109375 L 172.292969 44.535156 C 172.292969 40.027344 167.667969 38.46875 167.667969 38.46875 L 137.402344 23.902344 C 130.789062 19.824219 126.457031 24.636719 126.457031 24.636719 C 126.457031 24.636719 132.027344 20.632812 134.753906 28.214844 L 134.753906 163.84375 C 134.753906 164.777344 134.554688 165.691406 134.15625 166.519531 C 133.359375 168.121094 131.628906 169.621094 127.480469 168.992188 Z M 127.773438 169.3125 " fill-opacity="1" fill-rule="nonzero"/></g></svg>