<svg xmlns="http://www.w3.org/2000/svg" xmlns:xlink="http://www.w3.org/1999/xlink" width="256" zoomAndPan="magnify" viewBox="0 0 192 199.92" height="256" preserveAspectRatio="xMidYMid meet" version="1.0"><defs><clipPath id="f10a979384"><path d="M 19.929688 19.191406 L 172.117188 19.191406 L 172.117188 172.878906 L 19.929688 172.878906 Z M 19.929688 19.191406 " clip-rule="nonzero"/></clipPath></defs><g clip-path="url(#f10a979384)"><path fill="#fb7a24" d="M 95.980469 19.296875 C 115.734375 19.296875 135.488281 19.296875 155.242188 19.296875 C 157.71875 19.296875 160.175781 19.511719 162.554688 20.234375 C 167.710938 21.808594 170.441406 25.511719 171.511719 30.609375 C 171.9375 32.632812 172.058594 34.695312 172.0625 36.753906 C 172.09375 50.597656 172.117188 64.441406 172.117188 78.289062 C 172.117188 103.5 172.121094 128.714844 172.070312 153.929688 C 172.0625 157.457031 171.875 161.027344 170.132812 164.242188 C 168.203125 167.808594 165.558594 170.628906 161.542969 171.871094 C 160.816406 172.09375 160.058594 172.351562 159.316406 172.351562 C 157.601562 172.351562 155.9375 172.777344 154.226562 172.777344 C 115.546875 172.773438 76.863281 172.796875 38.183594 172.734375 C 35.039062 172.730469 31.839844 172.5 28.851562 171.21875 C 28.257812 170.964844 27.65625 170.75 27.132812 170.351562 C 23.328125 167.449219 20.746094 163.832031 20.191406 158.933594 C 19.992188 157.167969 19.929688 155.410156 19.929688 153.644531 C 19.933594 114.410156 19.9375 75.175781 19.957031 35.941406 C 19.960938 33.664062 19.984375 31.351562 20.683594 29.171875 C 22.546875 23.367188 26.625 20.199219 32.667969 19.554688 C 34.070312 19.40625 35.488281 19.308594 36.898438 19.308594 C 56.59375 19.289062 76.285156 19.296875 95.980469 19.296875 Z M 95.980469 19.296875 " fill-opacity="1" fill-rule="evenodd"/></g><path fill="#ffffff" d="M 96.484375 116.925781 C 96.050781 119.574219 95.746094 121.96875 94.796875 124.175781 C 90.34375 134.519531 82.753906 140.820312 71.378906 142.074219 C 57.929688 143.558594 45.507812 135.25 41.773438 122.351562 C 40.421875 117.675781 40.554688 112.910156 41.046875 108.152344 C 41.570312 103.070312 43.066406 98.25 45.402344 93.699219 C 45.738281 93.050781 45.730469 92.558594 45.3125 91.929688 C 41.726562 86.527344 40.332031 80.5625 40.839844 74.121094 C 41.109375 70.679688 41.945312 67.386719 43.503906 64.304688 C 48.074219 55.269531 58.109375 47.605469 71.550781 48.878906 C 83.371094 49.996094 94.316406 60.199219 96.023438 71.671875 C 96.109375 72.246094 96.273438 72.8125 96.460938 73.660156 C 96.746094 72.121094 96.949219 70.851562 97.214844 69.597656 C 99.414062 59.171875 109.609375 48.265625 124.0625 48.132812 C 138.710938 47.996094 149.558594 59.492188 151.605469 70.167969 C 152.46875 74.679688 152.320312 79.1875 151.605469 83.695312 C 150.898438 88.203125 149.574219 92.519531 147.640625 96.648438 C 147.214844 97.558594 147.257812 98.214844 147.804688 99.058594 C 150.957031 103.949219 152.351562 109.320312 152.171875 115.152344 C 151.800781 127.324219 143.199219 138.238281 131.363281 141.089844 C 114.84375 145.074219 102.179688 135.1875 97.917969 123.226562 C 97.222656 121.277344 96.894531 119.246094 96.484375 116.925781 Z M 126.5 95.542969 C 126.675781 94.855469 127.207031 94.445312 127.589844 93.933594 C 131.734375 88.425781 133.914062 82.273438 133.425781 75.34375 C 133.070312 70.289062 128.914062 66.726562 123.882812 66.914062 C 118.851562 67.101562 115.054688 70.988281 114.984375 76.027344 C 114.980469 76.441406 115.003906 76.855469 114.980469 77.265625 C 114.632812 82.636719 111.671875 85.582031 107.179688 85.910156 C 106.363281 85.96875 105.539062 86.042969 104.71875 86.042969 C 98.890625 86.058594 93.066406 86.054688 87.238281 86.050781 C 84.695312 86.046875 82.171875 86.324219 79.75 87.074219 C 68.4375 90.566406 61.84375 98.304688 59.660156 109.84375 C 59.226562 112.125 58.835938 114.496094 59.582031 116.839844 C 60.65625 120.203125 62.65625 122.703125 66.199219 123.539062 C 69.867188 124.40625 73.066406 123.445312 75.605469 120.5625 C 77.246094 118.699219 77.761719 116.480469 77.886719 114.050781 C 78.203125 107.792969 81.605469 104.667969 87.285156 104.714844 C 95.992188 104.785156 104.703125 104.730469 113.414062 104.734375 C 114.957031 104.738281 114.972656 104.757812 114.980469 106.289062 C 114.996094 109.113281 114.910156 111.945312 115.019531 114.765625 C 115.195312 119.375 119.246094 123.207031 123.945312 123.339844 C 128.789062 123.480469 133.105469 119.894531 133.421875 115.214844 C 133.695312 111.164062 133.675781 107.085938 133.410156 103.03125 C 133.207031 99.894531 131.507812 97.65625 128.632812 96.359375 C 127.945312 96.050781 127.21875 95.816406 126.5 95.542969 Z M 71.90625 86.035156 C 73.777344 86.035156 75.308594 86.019531 76.835938 86.042969 C 77.59375 86.054688 77.875 85.730469 77.867188 84.988281 C 77.84375 82.046875 77.996094 79.097656 77.808594 76.164062 C 77.558594 72.300781 75.507812 69.507812 71.910156 68.097656 C 68.222656 66.652344 64.847656 67.476562 61.996094 70.203125 C 59.128906 72.941406 58.746094 76.289062 59.75 79.953125 C 60.671875 83.320312 62.847656 85.234375 66.269531 85.8125 C 68.257812 86.148438 70.257812 85.988281 71.90625 86.035156 Z M 71.90625 86.035156 " fill-opacity="1" fill-rule="evenodd"/></svg>